<?xml version="1.0" encoding="UTF-8"?>
<svg xmlns="http://www.w3.org/2000/svg" version="1.1" viewBox="0 0 1080 474">
  <defs>
    <style>
      .cls-1 {
        fill: #fff;
      }
    </style>
  </defs>
  <!-- Generator: Adobe Illustrator 28.7.1, SVG Export Plug-In . SVG Version: 1.2.0 Build 142)  -->
  <g>
    <g id="Layer_1">
      <g>
        <g>
          <path class="cls-1" d="M48.91,431.05h-19.11l-3.13,6.89h-7.46l16.39-36.54h7.52l16.39,36.54h-7.52l-3.08-6.89ZM39.36,409.08l-6.79,15.56h13.57l-6.79-15.56Z"/>
          <path class="cls-1" d="M158.54,419.36c.16,9.24-5.48,18.58-18.27,18.58h-14.35v-36.54h14.35c12.53,0,18.11,8.93,18.27,17.96ZM132.75,431.32h7.52c8.3,0,11.59-6.05,11.43-12.01-.16-5.69-3.5-11.38-11.43-11.38h-7.52v23.39Z"/>
          <path class="cls-1" d="M245.05,438.1h-7.15l-15.19-36.7h7.73l11.01,28.45,11.07-28.45h7.73l-15.19,36.7Z"/>
          <path class="cls-1" d="M354.36,437.95h-27.35v-36.54h27.35v6.68h-20.51v8.4h19.78v6.42h-19.78v8.25h20.51v6.79Z"/>
          <path class="cls-1" d="M454.75,437.95h-8.2l-10.65-12.21h-6.63v12.21h-6.89v-36.59c5.79,0,11.59.05,17.38.05,8.61.05,13.15,5.79,13.15,12.11,0,5.01-2.3,10.07-9.24,11.48l11.07,12.48v.47ZM429.28,407.83v11.69h10.49c4.38,0,6.26-2.92,6.26-5.85s-1.93-5.85-6.26-5.85h-10.49Z"/>
          <path class="cls-1" d="M531.29,407.67h-11.59v-6.26h30.07v6.26h-11.59v30.28h-6.89v-30.28Z"/>
          <path class="cls-1" d="M616.64,437.95v-36.54h6.84v36.54h-6.84Z"/>
          <path class="cls-1" d="M716.19,410.23c-1.25-2.09-4.7-4.07-8.67-4.07-5.12,0-7.57,2.14-7.57,4.85,0,3.18,3.76,4.07,8.14,4.59,7.62.94,14.72,2.92,14.72,11.64,0,8.14-7.2,11.64-15.35,11.64-7.46,0-13.21-2.3-15.92-8.98l5.74-2.98c1.62,4.02,5.85,5.79,10.28,5.79s8.4-1.51,8.4-5.48c0-3.45-3.6-4.85-8.46-5.38-7.46-.89-14.36-2.87-14.36-11.07,0-7.52,7.41-10.6,14.15-10.65,5.69,0,11.59,1.62,14.36,7.26l-5.48,2.82Z"/>
          <path class="cls-1" d="M790.85,437.95v-36.54h6.84v36.54h-6.84Z"/>
          <path class="cls-1" d="M890.82,401.35h6.89v36.59h-4.28v.05l-19.21-24.69v24.64h-6.89v-36.54h5.58l17.91,22.65v-22.71Z"/>
          <path class="cls-1" d="M993.82,410.33c-2.45-2.35-6.11-3.65-9.29-3.65-7.83,0-12.58,5.95-12.58,13.47,0,6,3.5,12.22,12.58,12.22,2.87,0,5.38-.63,8.25-2.92v-6.47h-9.34v-6.16h15.66v15.4c-3.6,4.12-8.14,6.58-14.56,6.58-13.73,0-19.31-9.03-19.31-18.64,0-10.28,6.42-19.78,19.31-19.78,4.91,0,9.81,1.88,13.57,5.58l-4.28,4.38Z"/>
        </g>
        <g>
          <g>
            <path class="cls-1" d="M436.06,206.16c0-30.97.88-51.7,2.66-62.18,1.88-10.49,4.77-18.96,8.66-25.43,6.24-12.24,16.25-23.15,30.03-32.73,13.54-9.69,30.45-14.66,50.72-14.91,20.49.24,37.57,5.23,51.24,14.96,13.54,9.62,23.32,20.57,29.34,32.85,4.35,6.45,7.35,14.91,9,25.37,1.53,10.47,2.3,31.15,2.3,62.06s-.77,50.98-2.3,61.69c-1.65,10.71-4.65,19.29-9.01,25.73-6,12.3-15.79,23.12-29.34,32.49-13.66,9.74-30.74,14.85-51.24,15.33-20.26-.49-37.17-5.6-50.71-15.33-13.78-9.37-23.8-20.19-30.04-32.49-1.88-4.01-3.59-7.85-5.12-11.5-1.41-3.77-2.6-8.52-3.53-14.24-1.78-10.71-2.66-31.27-2.66-61.69ZM475.09,206.16c0,26.22.95,43.96,2.84,53.23,1.65,9.27,5.02,16.77,10.09,22.49,4.13,5.49,9.56,9.94,16.29,13.36,6.6,4.02,14.52,6.03,23.73,6.03s17.41-2.01,24.26-6.03c6.49-3.42,11.68-7.87,15.58-13.36,5.08-5.73,8.56-13.23,10.46-22.49,1.77-9.27,2.65-27.01,2.65-53.23s-.88-44.07-2.65-53.59c-1.9-9.02-5.38-16.4-10.46-22.14-3.89-5.48-9.09-10.06-15.58-13.71-6.85-3.54-14.93-5.43-24.26-5.67-9.21.24-17.12,2.13-23.73,5.67-6.73,3.66-12.16,8.23-16.29,13.71-5.08,5.73-8.44,13.11-10.09,22.13-1.89,9.52-2.84,27.38-2.84,53.59Z"/>
            <path class="cls-1" d="M672.8,73.11h93.43c10.15,0,19.93.98,29.37,2.92,9.44,2.55,18.99,7.79,28.67,15.7,8.12,5.96,14.71,14.48,19.77,25.55,5.3,10.71,7.94,23.36,7.94,37.96,0,19.71-6.73,37.66-20.18,53.84-13.8,17.04-33.98,25.8-60.52,26.28h-59.47v103.87h-39.02V73.11ZM711.81,197.41h57.93c14.53-.24,25.45-4.89,32.77-13.94,6.97-8.8,10.45-18.58,10.45-29.33,0-8.93-1.41-16.44-4.25-22.56-2.96-5.5-7.09-9.84-12.4-13.02-8.03-5.25-17.36-7.76-27.99-7.52h-56.51v86.36Z"/>
            <path class="cls-1" d="M897.56,274.75c20.52,17.44,44.94,26.28,73.25,26.52,33.5-.48,50.48-12.85,50.96-37.08.24-19.85-10.96-31.78-33.6-35.8-10.37-1.46-21.76-3.11-34.12-4.93-22.17-3.77-39.03-12.24-50.57-25.39-11.91-13.52-17.86-29.96-17.86-49.32,0-23.26,7.48-42.01,22.43-56.26,14.49-14.13,35.03-21.32,61.65-21.56,32.03.73,59.88,9.89,83.55,27.49l-21.76,33.13c-19.35-13.17-40.63-20-63.86-20.48-12.04,0-22.06,3.11-30.07,9.32-8.37,6.46-12.68,16.08-12.91,28.87,0,7.67,2.89,14.61,8.66,20.82,5.77,6.33,15.04,10.72,27.76,13.15,7.07,1.22,16.74,2.62,29.01,4.2,24.17,3.41,42.03,12.36,53.58,26.86,11.43,14.25,17.16,30.81,17.16,49.69-1.3,50.91-31.45,76.72-90.44,77.46-38.16,0-70.96-12.11-98.4-36.33l25.61-30.33Z"/>
          </g>
          <g>
            <g>
              <polygon class="cls-1" points="179.96 66.53 164.69 94.42 134.16 85.49 139.72 34.14 179.96 66.53"/>
              <polygon class="cls-1" points="99.24 252.44 90.29 282.96 38.96 277.41 71.33 237.17 99.24 252.44"/>
              <polygon class="cls-1" points="287.78 326.83 282.22 378.17 241.98 345.79 257.25 317.89 287.78 326.83"/>
              <polygon class="cls-1" points="382.98 134.92 350.61 175.14 322.7 159.87 331.63 129.36 382.98 134.92"/>
            </g>
            <g>
              <path class="cls-1" d="M162.3,98.81l-1.54,2.8c-2.88,5.26-6.07,10.29-9.57,15.07-5.77,1.4-11.64,2.44-17.61,3.08l-3.17.34-2.48.27-2.49.27-31.63,3.43-14.51-49.56,49.56,14.51,2.38.69,2.37.69,28.68,8.4Z"/>
              <path class="cls-1" d="M342.62,74.51l-14.51,49.56-.69,2.37-.69,2.38-8.4,28.66-2.8-1.54c-5.26-2.87-10.29-6.06-15.07-9.57-1.41-5.77-2.44-11.64-3.08-17.59l-.34-3.17-.27-2.49-.27-2.48-3.43-31.63,49.56-14.51Z"/>
              <path class="cls-1" d="M128.88,323.29l-49.56,14.52,14.51-49.56.69-2.38.69-2.38,8.4-28.66,2.8,1.54c5.26,2.88,10.29,6.07,15.08,9.58,1.4,5.75,2.43,11.63,3.07,17.58l.34,3.17.27,2.49.27,2.49,3.43,31.62Z"/>
              <path class="cls-1" d="M342.62,337.81l-49.56-14.52-2.38-.69-2.37-.69-28.66-8.4,1.52-2.79c2.88-5.26,6.07-10.29,9.56-15.07,5.77-1.4,11.66-2.44,17.62-3.08l3.17-.34,2.48-.27,2.49-.27,31.63-3.43,14.51,49.56Z"/>
            </g>
            <g>
              <path class="cls-1" d="M146.53,122.71c-5.69,6.96-12.06,13.33-19.01,19.01-.99.82-1.98,1.61-2.99,2.39-1,.77-2,1.52-3.02,2.26-4.79,3.51-9.83,6.71-15.08,9.58l-2.8,1.54-2.19,1.19-2.19,1.21-27.9,15.25-32.37-40.22,51.33-5.56,2.46-.27,2.46-.27,29.7-3.21,2.49-.27,2.48-.27,4.23-.46c4.18-.45,8.32-1.09,12.41-1.9Z"/>
              <path class="cls-1" d="M294.41,141.72c-6.95-5.69-13.3-12.06-19-19.01-.82-.99-1.61-1.98-2.39-2.99-.77-1-1.54-2.01-2.28-3.04-3.5-4.78-6.69-9.82-9.57-15.07l-1.54-2.8-1.19-2.19-1.19-2.18-15.27-27.91,40.24-32.38,5.56,51.34.27,2.46.27,2.46,3.21,29.7.27,2.48.27,2.49.46,4.23c.45,4.18,1.09,8.32,1.89,12.41Z"/>
              <path class="cls-1" d="M179.96,345.8l-40.24,32.37-5.56-51.34-.27-2.46-.27-2.46-3.21-29.69-.27-2.49-.27-2.49-.46-4.23c-.45-4.18-1.09-8.32-1.9-12.41,6.95,5.69,13.31,12.06,19.01,19.01.82.98,1.61,1.98,2.39,2.99.77,1,1.54,2.01,2.28,3.05,3.5,4.78,6.71,9.82,9.57,15.07l1.52,2.79,1.21,2.19,1.19,2.19,15.27,27.91Z"/>
              <path class="cls-1" d="M382.98,277.41l-51.34,5.55-2.46.27-2.45.27-29.7,3.21-2.49.27-2.48.27-4.23.46c-4.18.45-8.32,1.09-12.41,1.9,5.69-6.95,12.05-13.3,19-19,.98-.82,1.98-1.61,2.99-2.39,1-.77,2.01-1.54,3.05-2.28,4.78-3.5,9.82-6.69,15.07-9.57l2.8-1.54,2.18-1.19,2.19-1.19,27.91-15.27,32.37,40.24Z"/>
            </g>
            <path class="cls-1" d="M397.16,206.16l-45.32,24.79-2.17,1.18-2.17,1.18-26.2,14.34-2.19,1.19-2.18,1.19-3.74,2.05c-3.68,2.01-7.27,4.18-10.73,6.51-1.07.71-2.13,1.44-3.18,2.18-1.06.74-2.1,1.5-3.13,2.27-10.72,8.05-20.24,17.57-28.27,28.29-.77,1.04-1.52,2.07-2.27,3.12s-1.48,2.11-2.19,3.18c-2.32,3.46-4.49,7.05-6.5,10.73l-2.05,3.73-1.19,2.19-1.19,2.19-14.33,26.2-1.19,2.17-1.19,2.17-24.78,45.31-24.78-45.31-1.18-2.17-1.19-2.17-14.33-26.2-1.19-2.19-1.21-2.19-2.04-3.73c-2.01-3.68-4.18-7.27-6.51-10.73-.71-1.07-1.44-2.13-2.18-3.18-.74-1.05-1.5-2.08-2.27-3.12-8.03-10.72-17.56-20.24-28.27-28.29-1.04-.77-2.08-1.54-3.15-2.28-1.04-.74-2.1-1.46-3.16-2.17-3.46-2.32-7.05-4.49-10.74-6.51l-3.74-2.05-2.19-1.19-2.18-1.19-26.2-14.34-2.17-1.18-2.18-1.19-45.31-24.78,45.31-24.78,2.17-1.19,2.18-1.18,26.19-14.33,2.19-1.21,2.19-1.19,3.74-2.05c3.68-2.01,7.27-4.18,10.73-6.5,1.07-.71,2.12-1.44,3.17-2.18,1.06-.74,2.11-1.5,3.15-2.28,10.72-8.03,20.23-17.55,28.26-28.26.78-1.04,1.54-2.08,2.29-3.15.74-1.04,1.46-2.1,2.17-3.17,2.33-3.46,4.5-7.05,6.51-10.73l2.05-3.74,1.19-2.19,1.19-2.18,14.33-26.21,1.19-2.17,1.18-2.17,24.78-45.31,24.78,45.31,1.19,2.18,1.18,2.17,14.34,26.2,1.19,2.18,1.19,2.19,2.05,3.74c2.01,3.68,4.18,7.27,6.5,10.73.72,1.07,1.45,2.13,2.18,3.17.76,1.06,1.51,2.11,2.29,3.15,8.03,10.72,17.55,20.23,28.26,28.26,1.04.78,2.07,1.54,3.13,2.28,1.05.74,2.11,1.48,3.18,2.18,3.46,2.32,7.05,4.49,10.73,6.5l3.74,2.05,2.18,1.19,2.19,1.19,26.2,14.34,2.17,1.18,2.18,1.19,45.31,24.78Z"/>
          </g>
        </g>
      </g>
    </g>
  </g>
</svg>